<svg width="18" height="18" viewBox="0 0 18 18" fill="none" xmlns="http://www.w3.org/2000/svg">
<path d="M8.99999 17.9997C13.9705 17.9997 18 13.9704 18 8.99987C18 4.02938 13.9705 0 8.99999 0C4.02943 0 0 4.02938 0 8.99987C0 13.9704 4.02943 17.9997 8.99999 17.9997Z" fill="#F0F0F0"/>
<path d="M17.4402 12.1304C17.802 11.1554 18 10.1009 18 9C18 7.89913 17.802 6.8446 17.4402 5.86963H0.559792C0.198035 6.8446 0 7.89913 0 9C0 10.1009 0.198035 11.1554 0.559792 12.1304L8.99999 12.913L17.4402 12.1304Z" fill="#0052B4"/>
<path d="M9.0027 17.9999C12.8724 17.9999 16.1713 15.5575 17.4429 12.1304H0.5625C1.83414 15.5575 5.13302 17.9999 9.0027 17.9999Z" fill="#D80027"/>
</svg>
