<svg width="160" height="28" viewBox="0 0 160 28" fill="none" xmlns="http://www.w3.org/2000/svg">
<g clip-path="url(#clip0)">
<path d="M29.7397 8.09887L19.7176 -1.92383L19.7227 8.09798L29.7397 8.09887Z" fill="#1A80C0"/>
<path d="M29.7383 28.146L19.7136 18.1254L19.7176 28.1493L29.7383 28.146Z" fill="#26C9F4"/>
<path d="M-0.333792 18.1262L9.68835 28.1489L9.69779 18.1225L-0.333792 18.1262Z" fill="#1A80C0"/>
<path d="M19.7129 18.1244L29.7385 28.1472L29.7399 18.1244L19.7129 18.1244Z" fill="#26C9F4"/>
<path d="M29.7381 8.10133L19.7159 18.124L29.7392 18.1241L29.7381 8.10133Z" fill="#00C0F2"/>
<path d="M19.7124 18.1253L9.68835 28.1499L19.7172 28.1444L19.7124 18.1253Z" fill="#00C0F2"/>
<path d="M19.7151 18.1257L29.7402 8.1001L19.7166 8.1003L19.7151 18.1257Z" fill="#00ADE5"/>
<path d="M9.68902 28.1515L19.7159 18.124L9.69066 18.1259L9.68902 28.1515Z" fill="#00ADE5"/>
<path d="M-0.350366 18.1072L9.67178 28.1299L9.67146 18.1057L-0.350366 18.1072Z" fill="#F22A2E"/>
<path d="M29.7222 8.08031L19.7001 -1.94238L19.6907 8.08407L29.7222 8.08031Z" fill="#F22A2E"/>
<path d="M-0.351278 -1.9392L9.67087 8.0835L9.66536 -1.94593L-0.351278 -1.9392Z" fill="#FF494B"/>
<path d="M-0.358849 18.1138L9.67087 8.0835L-0.350679 8.08301L-0.358849 18.1138Z" fill="#FF241E"/>
<path d="M9.67463 8.08861L19.6968 -1.93408L9.6679 -1.92858L9.67463 8.08861Z" fill="#FF3030"/>
<path d="M9.66513 8.07696L-0.351715 -1.94043L-0.351512 8.08369L9.66513 8.07696Z" fill="#FF494B"/>
<path d="M9.67468 8.08205L-0.355042 18.1123L9.67384 18.1068L9.67468 8.08205Z" fill="#F92A2D"/>
<path d="M19.693 -1.93578L9.67087 8.08691L19.6997 8.08141L19.693 -1.93578Z" fill="#F92A2D"/>
</g>
<path d="M51.19 8.84729V6.26193H40.4004V22.735H51.19V20.1497H43.1968V15.7797H49.7917V13.1944H43.1968V8.84729H51.19ZM64.5293 10.3802H61.3134L58.517 14.2239L55.6972 10.3802H52.4813L56.8857 16.4889L52.388 22.735H55.6039L58.517 18.7311L61.4299 22.735H64.6458L60.1249 16.4889L64.5293 10.3802ZM76.5038 12.0046C75.4319 10.7005 73.7773 10.037 72.0528 10.037C70.6546 10.037 69.3496 10.5175 68.3476 11.3183V10.3802H65.854V27.9999H68.6738V22.0486C69.6292 22.735 70.8411 23.0782 72.146 23.0782C73.8239 23.0782 75.4552 22.369 76.5038 21.1106C77.5525 19.8064 77.9487 18.2278 77.9487 16.5576C77.9487 14.8645 77.4826 13.2401 76.5038 12.0046ZM74.2667 19.4175C73.6841 20.2641 72.7053 20.6072 71.7266 20.6072C70.7246 20.6072 69.8623 20.2869 69.2564 19.6006C68.6273 18.8913 68.3476 17.7244 68.3476 16.5576C68.3476 15.3907 68.6273 14.2468 69.2564 13.4918C69.8157 12.8283 70.6779 12.508 71.6334 12.508C72.7286 12.508 73.6375 12.8512 74.2201 13.6977C74.7328 14.407 74.9658 15.4365 74.9658 16.5576C74.9658 17.6558 74.7794 18.7082 74.2667 19.4175ZM85.1883 23.0782C87.0525 23.0782 88.777 22.3919 89.9422 21.019C91.0141 19.7149 91.4569 18.2735 91.4569 16.5576C91.4569 14.9103 91.0375 13.3774 89.9422 12.0733C88.8003 10.7234 87.0293 10.037 85.1883 10.037C83.3473 10.037 81.5529 10.7463 80.4343 12.0733C79.4089 13.2859 78.9196 14.8416 78.9196 16.5576C78.9196 18.2278 79.3623 19.7378 80.4343 21.019C81.5762 22.369 83.324 23.0782 85.1883 23.0782ZM87.7051 19.3489C87.1458 20.1039 86.1903 20.4928 85.1883 20.4928C84.1629 20.4928 83.2308 20.1039 82.6715 19.3489C82.0656 18.5938 81.9024 17.5643 81.9024 16.5576C81.9024 15.528 82.0656 14.4985 82.6715 13.7435C83.2308 12.9884 84.1629 12.6224 85.1883 12.6224C86.1903 12.6224 87.1458 12.9884 87.7051 13.7435C88.2877 14.4985 88.4974 15.528 88.4974 16.5576C88.4974 17.5643 88.2877 18.5938 87.7051 19.3489ZM99.2733 10.0599C98.4343 10.0828 97.5954 10.3116 96.873 10.792C96.337 11.1352 95.9175 11.5928 95.6146 12.0961V10.3802H93.1211V22.735H95.9409V16.3288C95.9409 15.1848 96.1506 14.2239 96.873 13.4918C97.3391 13.0113 98.0614 12.691 98.9936 12.6224C99.8326 12.5766 99.7709 12.6224 99.7709 12.6224V10.079C99.7709 10.079 99.7272 10.0599 99.2733 10.0599ZM109.969 12.5308V10.3802H106.264V6.94831H103.467V10.3802H101.184V12.5308H103.467V17.6787C103.467 18.9828 103.514 20.1039 104.027 21.0648C104.516 21.98 105.378 22.5291 106.52 22.8037C107.429 23.0325 108.99 22.9867 109.969 22.735V20.3555C109.293 20.4471 108.524 20.4699 107.895 20.4242C107.382 20.3784 106.846 20.081 106.567 19.6235C106.287 19.1658 106.264 18.4795 106.264 17.4956V12.5308H109.969ZM112.246 19.9208V22.735H115.113V19.9208H112.246ZM120.972 6.26193V20.1497H128.382V22.735H118.175V6.26193H120.972ZM129.711 6.01025V8.54985H132.507V6.01025H129.711ZM129.711 10.3802V22.735H132.507V10.3802H129.711ZM145.159 11.2954C143.994 10.1972 142.526 9.96837 141.105 10.0599C139.963 10.1056 138.704 10.5175 137.889 11.4555C137.796 11.5699 137.703 11.6843 137.609 11.7758V10.3802H135.139V22.735H137.958V17.3584V17.3355C137.958 16.4432 137.958 15.5052 138.099 14.9103C138.238 14.1782 138.588 13.5833 139.077 13.1944C139.543 12.8283 140.103 12.6452 140.732 12.6224C141.618 12.5995 142.34 12.8512 142.829 13.3316C143.645 14.0638 143.832 15.4365 143.832 16.8779V22.735H146.675V16.7635C146.675 14.773 146.628 12.5995 145.159 11.2954ZM151.682 17.5185H153.009L156.785 22.735H160L155.433 16.4203L159.604 10.3802H156.459L152.986 15.3679H151.682V6.26193H148.838L148.815 22.735H151.682V17.5185Z" fill="#253858"/>
<defs>
<clipPath id="clip0">
<rect width="29" height="28" fill="white"/>
</clipPath>
</defs>
</svg>
