<svg width="16" height="14" viewBox="0 0 16 14" fill="none" xmlns="http://www.w3.org/2000/svg">
<path d="M15.1579 12.25C15.623 12.25 16 12.6418 16 13.125C16 13.6082 15.623 14 15.1579 14H0.842105C0.377023 14 0 13.6082 0 13.125C0 12.6418 0.377023 12.25 0.842105 12.25H15.1579ZM15.1579 6.125C15.623 6.125 16 6.51675 16 7C16 7.48325 15.623 7.875 15.1579 7.875H0.842105C0.377023 7.875 0 7.48325 0 7C0 6.51675 0.377023 6.125 0.842105 6.125H15.1579ZM15.1579 0C15.623 0 16 0.391751 16 0.875C16 1.35825 15.623 1.75 15.1579 1.75H0.842105C0.377023 1.75 0 1.35825 0 0.875C0 0.391751 0.377023 0 0.842105 0H15.1579Z" fill="#646B7D"/>
</svg>
